<?xml version="1.0" encoding="utf-8"?>
<!-- Generator: Adobe Illustrator 23.0.6, SVG Export Plug-In . SVG Version: 6.00 Build 0)  -->
<svg version="1.1" id="Laag_1" xmlns:sketch="http://www.bohemiancoding.com/sketch/ns"
	 xmlns="http://www.w3.org/2000/svg" xmlns:xlink="http://www.w3.org/1999/xlink" x="0px" y="0px" viewBox="0 0 40 40"
	 style="enable-background:new 0 0 40 40;" xml:space="preserve">
<style type="text/css">
	.st0{fill:#FFFFFF;}
	.st1{fill-opacity:8.000000e-02;}
	.st2{fill:#333333;}
</style>
<path sketch:type="MSShapeGroup" class="st0" d="M0.3,20C0.3,9,9.1,0,20,0s19.7,9,19.7,20S30.9,40,20,40S0.3,31,0.3,20z"/>
<path id="reflec" sketch:type="MSShapeGroup" class="st1" d="M39.6,20c0,11-8.8,20-19.7,20c-4,0-7.8-1.2-10.9-3.3L31.5,3.9
	C36.4,7.5,39.6,13.4,39.6,20z"/>
<g>
	<path class="st2" d="M20,8.9C20,8.9,20,8.9,20,8.9C20,8.9,20,8.9,20,8.9C20,8.9,20,8.9,20,8.9c-6.2,0-11.1,5-11.1,11.1
		s5,11.1,11.1,11.1c0,0,0,0,0,0c0,0,0,0,0,0c0,0,0,0,0,0c6.2,0,11.1-5,11.1-11.1S26.2,8.9,20,8.9z M20.4,15.5c1.2,0,2.3-0.2,3.4-0.5
		c0.3,1.3,0.5,2.8,0.6,4.5h-4V15.5z M20.4,14.6V9.8c1.2,0.3,2.4,1.9,3.2,4.4C22.6,14.5,21.5,14.6,20.4,14.6z M19.6,9.8v4.8
		c-1.1,0-2.2-0.2-3.2-0.4C17.1,11.7,18.3,10.1,19.6,9.8z M19.6,15.5v4h-4c0-1.7,0.2-3.2,0.6-4.5C17.2,15.3,18.4,15.5,19.6,15.5z
		 M14.6,19.6H9.8c0.1-2.3,1-4.4,2.3-6.1c1,0.5,2,1,3.1,1.3C14.9,16.2,14.6,17.9,14.6,19.6z M14.6,20.4c0,1.7,0.2,3.3,0.6,4.7
		c-1.1,0.3-2.2,0.8-3.1,1.3c-1.4-1.7-2.2-3.8-2.3-6.1H14.6L14.6,20.4z M15.5,20.4h4v4c-1.2,0-2.4,0.2-3.5,0.5
		C15.8,23.6,15.5,22.1,15.5,20.4z M19.6,25.4v4.8c-1.2-0.3-2.4-1.9-3.2-4.4C17.4,25.5,18.4,25.4,19.6,25.4z M20.4,30.2v-4.8
		c1.1,0,2.2,0.2,3.2,0.4C22.9,28.2,21.6,29.9,20.4,30.2z M20.4,24.5v-4h4c0,1.7-0.2,3.2-0.6,4.5C22.8,24.7,21.6,24.5,20.4,24.5z
		 M25.4,20.4h4.9c-0.1,2.3-1,4.4-2.3,6.1c-1-0.6-2.1-1-3.2-1.3C25.1,23.7,25.3,22.1,25.4,20.4z M25.4,19.6c0-1.7-0.2-3.3-0.6-4.7
		c1.1-0.3,2.2-0.8,3.2-1.3c1.4,1.7,2.2,3.8,2.3,6.1L25.4,19.6L25.4,19.6z M27.3,12.8c-0.9,0.5-1.8,0.9-2.8,1.2
		c-0.5-1.7-1.3-3-2.1-3.9C24.3,10.5,26,11.5,27.3,12.8z M17.6,10c-0.9,0.9-1.6,2.3-2.1,3.9c-1-0.3-1.9-0.7-2.8-1.2
		C14,11.5,15.7,10.5,17.6,10z M12.7,27.2c0.9-0.5,1.8-0.9,2.8-1.2c0.5,1.7,1.2,3,2.1,3.9C15.7,29.5,14,28.5,12.7,27.2z M22.4,30
		c0.9-0.9,1.6-2.3,2.1-3.9c1,0.3,1.9,0.7,2.8,1.2C26,28.5,24.3,29.5,22.4,30z"/>
</g>
</svg>
